<?xml version="1.0" encoding="utf-8"?>
<svg version="1.1" xmlns="http://www.w3.org/2000/svg" width="400" height="400" viewBox="0 0 400 400" preserveAspectRatio="xMidYMid meet">
  <g fill="#ffffff" transform="translate(16.5, 23)">
    <path d="M93.50 337.80 c0 -0.10 1.65 -0.55 3.65 -1 28.30 -6.75 46.90 -20.15 57.35 -41.35 4.10 -8.35 4.05 -7.95 8.05 -35.70 0.30 -1.90 1.15 -7.65 1.95 -12.75 0.80 -5.10 1.90 -12.40 2.50 -16.25 0.55 -3.85 1.30 -8.85 1.70 -11.15 0.55 -3.45 0.55 -4 0 -3.55 -0.40 0.30 -0.60 0.70 -0.45 0.90 0.10 0.20 -4.45 4.10 -10.15 8.65 -12.85 10.20 -22.25 18.65 -31.35 27.95 -9.90 10.15 -16.60 18.30 -22.20 26.90 -1.10 1.70 -2.15 3.10 -2.30 3.10 -0.20 0 -1.60 -1.85 -3.10 -4.15 -11 -16.35 -27.90 -33.85 -49.65 -51.35 -6.40 -5.15 -9.10 -7.90 -13.45 -13.75 -3.05 -4.10 -9.55 -14.30 -9.55 -15 0 -0.15 -0.70 -1.70 -1.55 -3.55 -1.70 -3.70 -2.15 -5.75 -3.20 -14.75 -1.25 -10.65 -0.80 -19.05 1.80 -34.75 2.50 -15 9.45 -29.65 20.80 -43.75 5 -6.25 20.05 -21.20 25.70 -25.60 0.95 -0.70 2.40 -1.90 3.20 -2.60 0.85 -0.75 4.35 -3.60 7.90 -6.40 3.50 -2.75 6.60 -5.50 6.95 -6.05 1.10 -2.15 6.40 -8.20 11.20 -12.90 12.15 -11.80 26.15 -19.40 44.55 -24.20 26 -6.75 62.95 -5.20 88.65 3.70 20.55 7.10 37.45 19.05 48.55 34.30 1.65 2.30 4.30 5.15 5.95 6.45 1.65 1.30 3.25 2.60 3.60 2.95 0.35 0.35 1.65 1.40 2.90 2.35 1.25 0.95 2.35 1.85 2.50 2 0.15 0.15 2.15 1.95 4.50 4 6.50 5.70 16.90 16.25 20.65 21 1.90 2.35 3.70 4.60 4.10 5.10 4.80 5.90 11.65 18.60 14.20 26.40 2.25 6.85 2.40 7.40 3.05 11.25 0.30 1.95 0.75 4.65 1 6 1.70 9.45 2.05 28.40 0.75 36.25 -1.30 7.65 -1.65 9.20 -3 13.25 -1.80 5.30 -3.25 8.05 -6.60 12.70 -4.90 6.60 -7.70 9.55 -14.15 14.70 -22.50 18.10 -41.20 37.50 -51.50 53.35 -1.10 1.80 -2.15 3.25 -2.25 3.25 -0.10 0 -1.50 -1.90 -3.05 -4.25 -11.50 -17.10 -28.85 -34.90 -51.95 -53.25 -4.15 -3.25 -8.60 -6.80 -9.90 -7.90 -1.35 -1.10 -2.55 -1.80 -2.70 -1.65 -0.15 0.15 -0.65 0 -1.05 -0.30 -0.60 -0.55 -0.65 0.30 -0.35 6.35 0.20 3.85 0.65 8.60 1 10.50 0.40 1.95 1.05 5.55 1.50 8 0.40 2.50 1.20 6.65 1.75 9.25 0.55 2.60 1.35 6.80 1.75 9.25 0.40 2.50 1.30 7.20 2 10.50 0.65 3.30 1.20 6.50 1.25 7.15 0 1.15 1.50 8.30 2.60 12.35 1.20 4.50 5.90 12.95 10.55 18.90 5.80 7.40 13 13.25 22.85 18.50 6.75 3.60 17.45 7.60 25.90 9.60 1.95 0.45 3.60 0.95 3.60 1.05 0 0.10 -40.25 0.20 -89.50 0.20 -49.20 0 -89.50 -0.10 -89.50 -0.20z"/>
  </g>
</svg> 