<?xml version="1.0" encoding="UTF-8"?>
<svg width="24" height="24" viewBox="0 0 24 24" fill="none" xmlns="http://www.w3.org/2000/svg">
  <path d="M20 5H4C2.9 5 2 5.9 2 7V17C2 18.1 2.9 19 4 19H20C21.1 19 22 18.1 22 17V7C22 5.9 21.1 5 20 5Z" stroke="white" stroke-width="2" stroke-linecap="round" stroke-linejoin="round"/>
  <path d="M16 14C16.5523 14 17 13.5523 17 13C17 12.4477 16.5523 12 16 12C15.4477 12 15 12.4477 15 13C15 13.5523 15.4477 14 16 14Z" fill="white"/>
  <path d="M2 9H22" stroke="white" stroke-width="2" stroke-linecap="round" stroke-linejoin="round"/>
</svg> 